ffmpeg started on 2025-05-28 at 21:21:27
Report written to "D:\Convert\FFMetrics\reports\ssim_report-6.txt"
Log level: 32
Command line:
ffmpeg -hide_banner -nostdin -i "G:\\\xc0\xed\xe8\xec\xe5\\\xce\xed\xe3\xee\xe8\xed\xe3\xe8\\!_36_\xce\xf1\xe5\xed\xfc_2024\\JamClub\\\xcb\xfe\xe1\xee\xe2\xfc \xcc\xf3\xf0\xe0\xe8\\JamClub_Murai_no_Koi_02_1080p_HEVC.mkv" -i "G:\\\xc0\xed\xe8\xec\xe5\\\xce\xed\xe3\xee\xe8\xed\xe3\xe8\\!_36_\xce\xf1\xe5\xed\xfc_2024\\JamClub\\\xcb\xfe\xe1\xee\xe2\xfc \xcc\xf3\xf0\xe0\xe8\\JamClub_Murai_no_Koi_02_1080p.mp4" -lavfi "[0:v]settb=AVTB,setpts=PTS-STARTPTS,format=pix_fmts=yuv420p10,fps=24000/1001,scale=1920:1080:flags=bicubic[main];[1:v]settb=AVTB,setpts=PTS-STARTPTS,format=pix_fmts=yuv420p,fps=24000/1001,scale=1920:1080:flags=bicubic[ref];[main][ref]ssim=eof_action=endall:stats_file='D\\:/Convert/FFMetrics/logs/ssim_logfile-6.txt'" -f null -
Input #0, matroska,webm, from 'G:\Аниме\Онгоинги\!_36_Осень_2024\JamClub\Любовь Мураи\JamClub_Murai_no_Koi_02_1080p_HEVC.mkv':
  Metadata:
    COMPATIBLE_BRANDS: isomiso2avc1mp41
    MAJOR_BRAND     : isom
    MINOR_VERSION   : 512
    ENCODER         : Lavf61.7.100
  Duration: 00:24:04.21, start: -0.021000, bitrate: 1424 kb/s
  Stream #0:0: Video: hevc (Main 10), yuv420p10le(tv, bt709, progressive), 1920x1080 [SAR 1:1 DAR 16:9], 23.98 fps, 23.98 tbr, 1k tbn (default)
      Metadata:
        HANDLER_NAME    : VideoHandler
        VENDOR_ID       : [0][0][0][0]
        ENCODER         : Lavc61.19.100 libx265
        BPS             : 1225765
        DURATION        : 00:24:04.108708333
        NUMBER_OF_FRAMES: 34624
        NUMBER_OF_BYTES : 221267203
        _STATISTICS_WRITING_APP: mkvpropedit v66.0.0 ('Josie') 64-bit
        _STATISTICS_WRITING_DATE_UTC: 2025-05-28 11:55:08
        _STATISTICS_TAGS: BPS DURATION NUMBER_OF_FRAMES NUMBER_OF_BYTES
  Stream #0:1(eng): Audio: aac (LC), 48000 Hz, stereo, fltp (default)
      Metadata:
        HANDLER_NAME    : SoundHandler
        VENDOR_ID       : [0][0][0][0]
        ENCODER         : Lavc61.19.100 aac
        BPS             : 194306
        DURATION        : 00:24:04.184000000
        NUMBER_OF_FRAMES: 67697
        NUMBER_OF_BYTES : 35076760
        _STATISTICS_WRITING_APP: mkvpropedit v66.0.0 ('Josie') 64-bit
        _STATISTICS_WRITING_DATE_UTC: 2025-05-28 11:55:08
        _STATISTICS_TAGS: BPS DURATION NUMBER_OF_FRAMES NUMBER_OF_BYTES
Input #1, mov,mp4,m4a,3gp,3g2,mj2, from 'G:\Аниме\Онгоинги\!_36_Осень_2024\JamClub\Любовь Мураи\JamClub_Murai_no_Koi_02_1080p.mp4':
  Metadata:
    major_brand     : isom
    minor_version   : 512
    compatible_brands: isomiso2avc1mp41
    encoder         : Lavf60.16.100
  Duration: 00:24:04.18, start: 0.000000, bitrate: 4215 kb/s
  Stream #1:0[0x1](und): Video: h264 (High) (avc1 / 0x31637661), yuv420p(tv, bt709, progressive), 1920x1080 [SAR 1:1 DAR 16:9], 4017 kb/s, 23.98 fps, 23.98 tbr, 90k tbn (default)
      Metadata:
        handler_name    : VideoHandler
        vendor_id       : [0][0][0][0]
  Stream #1:1[0x2](eng): Audio: aac (LC) (mp4a / 0x6134706D), 48000 Hz, stereo, fltp, 191 kb/s (default)
      Metadata:
        handler_name    : SoundHandler
        vendor_id       : [0][0][0][0]
Stream mapping:
  Stream #0:0 (hevc) -> settb:default
  Stream #1:0 (h264) -> settb:default
  ssim:default -> Stream #0:0 (wrapped_avframe)
  Stream #0:1 -> #0:1 (aac (native) -> pcm_s16le (native))
Output #0, null, to 'pipe:':
  Metadata:
    COMPATIBLE_BRANDS: isomiso2avc1mp41
    MAJOR_BRAND     : isom
    MINOR_VERSION   : 512
    encoder         : Lavf61.7.100
  Stream #0:0: Video: wrapped_avframe, yuv420p10le(tv, bt709, progressive), 1920x1080 [SAR 1:1 DAR 16:9], q=2-31, 200 kb/s, 23.98 fps, 23.98 tbn
      Metadata:
        encoder         : Lavc61.19.100 wrapped_avframe
  Stream #0:1(eng): Audio: pcm_s16le, 48000 Hz, stereo, s16, 1536 kb/s (default)
      Metadata:
        HANDLER_NAME    : SoundHandler
        VENDOR_ID       : [0][0][0][0]
        _STATISTICS_TAGS: BPS DURATION NUMBER_OF_FRAMES NUMBER_OF_BYTES
        BPS             : 194306
        DURATION        : 00:24:04.184000000
        NUMBER_OF_FRAMES: 67697
        NUMBER_OF_BYTES : 35076760
        _STATISTICS_WRITING_APP: mkvpropedit v66.0.0 ('Josie') 64-bit
        _STATISTICS_WRITING_DATE_UTC: 2025-05-28 11:55:08
        encoder         : Lavc61.19.100 pcm_s16le
frame=  123 fps=0.0 q=-0.0 size=N/A time=00:00:05.13 bitrate=N/A speed= 9.8x    frame=  286 fps=279 q=-0.0 size=N/A time=00:00:11.92 bitrate=N/A speed=11.6x    frame=  494 fps=319 q=-0.0 size=N/A time=00:00:20.60 bitrate=N/A speed=13.3x    frame=  678 fps=329 q=-0.0 size=N/A time=00:00:28.27 bitrate=N/A speed=13.7x    frame=  842 fps=326 q=-0.0 size=N/A time=00:00:35.11 bitrate=N/A speed=13.6x    frame=  985 fps=319 q=-0.0 size=N/A time=00:00:41.08 bitrate=N/A speed=13.3x    frame= 1149 fps=318 q=-0.0 size=N/A time=00:00:47.92 bitrate=N/A speed=13.3x    frame= 1354 fps=329 q=-0.0 size=N/A time=00:00:56.47 bitrate=N/A speed=13.7x    frame= 1499 fps=323 q=-0.0 size=N/A time=00:01:02.52 bitrate=N/A speed=13.5x    frame= 1711 fps=332 q=-0.0 size=N/A time=00:01:11.36 bitrate=N/A speed=13.9x    frame= 1885 fps=332 q=-0.0 size=N/A time=00:01:18.62 bitrate=N/A speed=13.9x    frame= 2022 fps=327 q=-0.0 size=N/A time=00:01:24.33 bitrate=N/A speed=13.6x    frame= 2178 fps=325 q=-0.0 size=N/A time=00:01:30.84 bitrate=N/A speed=13.5x    frame= 2368 fps=328 q=-0.0 size=N/A time=00:01:38.76 bitrate=N/A speed=13.7x    frame= 2557 fps=331 q=-0.0 size=N/A time=00:01:46.64 bitrate=N/A speed=13.8x    frame= 2801 fps=339 q=-0.0 size=N/A time=00:01:56.82 bitrate=N/A speed=14.1x    frame= 3068 fps=350 q=-0.0 size=N/A time=00:02:07.96 bitrate=N/A speed=14.6x    frame= 3344 fps=360 q=-0.0 size=N/A time=00:02:19.47 bitrate=N/A speed=  15x    frame= 3592 fps=366 q=-0.0 size=N/A time=00:02:29.81 bitrate=N/A speed=15.3x    frame= 3867 fps=374 q=-0.0 size=N/A time=00:02:41.28 bitrate=N/A speed=15.6x    frame= 4118 fps=380 q=-0.0 size=N/A time=00:02:51.75 bitrate=N/A speed=15.8x    frame= 4373 fps=385 q=-0.0 size=N/A time=00:03:02.39 bitrate=N/A speed=16.1x    frame= 4641 fps=391 q=-0.0 size=N/A time=00:03:13.56 bitrate=N/A speed=16.3x    frame= 4924 fps=397 q=-0.0 size=N/A time=00:03:25.37 bitrate=N/A speed=16.6x    frame= 5221 fps=404 q=-0.0 size=N/A time=00:03:37.75 bitrate=N/A speed=16.9x    frame= 5490 fps=409 q=-0.0 size=N/A time=00:03:48.97 bitrate=N/A speed=  17x    frame= 5759 fps=413 q=-0.0 size=N/A time=00:04:00.19 bitrate=N/A speed=17.2x    frame= 5920 fps=409 q=-0.0 size=N/A time=00:04:06.91 bitrate=N/A speed=17.1x    frame= 6131 fps=409 q=-0.0 size=N/A time=00:04:15.71 bitrate=N/A speed=17.1x    frame= 6364 fps=410 q=-0.0 size=N/A time=00:04:25.43 bitrate=N/A speed=17.1x    frame= 6553 fps=409 q=-0.0 size=N/A time=00:04:33.31 bitrate=N/A speed=17.1x    frame= 6815 fps=412 q=-0.0 size=N/A time=00:04:44.24 bitrate=N/A speed=17.2x    frame= 7071 fps=415 q=-0.0 size=N/A time=00:04:54.91 bitrate=N/A speed=17.3x    frame= 7354 fps=419 q=-0.0 size=N/A time=00:05:06.72 bitrate=N/A speed=17.5x    frame= 7577 fps=419 q=-0.0 size=N/A time=00:05:16.02 bitrate=N/A speed=17.5x    frame= 7791 fps=419 q=-0.0 size=N/A time=00:05:24.94 bitrate=N/A speed=17.5x    frame= 8066 fps=422 q=-0.0 size=N/A time=00:05:36.41 bitrate=N/A speed=17.6x    frame= 8337 fps=425 q=-0.0 size=N/A time=00:05:47.72 bitrate=N/A speed=17.7x    frame= 8593 fps=426 q=-0.0 size=N/A time=00:05:58.39 bitrate=N/A speed=17.8x    frame= 8819 fps=427 q=-0.0 size=N/A time=00:06:07.82 bitrate=N/A speed=17.8x    frame= 9065 fps=428 q=-0.0 size=N/A time=00:06:18.08 bitrate=N/A speed=17.9x    frame= 9297 fps=429 q=-0.0 size=N/A time=00:06:27.76 bitrate=N/A speed=17.9x    frame= 9519 fps=429 q=-0.0 size=N/A time=00:06:37.02 bitrate=N/A speed=17.9x    frame= 9748 fps=429 q=-0.0 size=N/A time=00:06:46.57 bitrate=N/A speed=17.9x    frame= 9963 fps=429 q=-0.0 size=N/A time=00:06:55.54 bitrate=N/A speed=17.9x    frame=10205 fps=429 q=-0.0 size=N/A time=00:07:05.63 bitrate=N/A speed=17.9x    frame=10442 fps=430 q=-0.0 size=N/A time=00:07:15.51 bitrate=N/A speed=17.9x    frame=10696 fps=431 q=-0.0 size=N/A time=00:07:26.11 bitrate=N/A speed=  18x    frame=10937 fps=432 q=-0.0 size=N/A time=00:07:36.16 bitrate=N/A speed=  18x    frame=11203 fps=434 q=-0.0 size=N/A time=00:07:47.25 bitrate=N/A speed=18.1x    frame=11458 fps=435 q=-0.0 size=N/A time=00:07:57.89 bitrate=N/A speed=18.1x    frame=11678 fps=435 q=-0.0 size=N/A time=00:08:07.06 bitrate=N/A speed=18.1x    frame=11927 fps=436 q=-0.0 size=N/A time=00:08:17.45 bitrate=N/A speed=18.2x    frame=12172 fps=436 q=-0.0 size=N/A time=00:08:27.67 bitrate=N/A speed=18.2x    frame=12450 fps=438 q=-0.0 size=N/A time=00:08:39.31 bitrate=N/A speed=18.3x    frame=12711 fps=439 q=-0.0 size=N/A time=00:08:50.15 bitrate=N/A speed=18.3x    frame=12958 fps=440 q=-0.0 size=N/A time=00:09:00.45 bitrate=N/A speed=18.4x    frame=13213 fps=441 q=-0.0 size=N/A time=00:09:11.09 bitrate=N/A speed=18.4x    frame=13429 fps=441 q=-0.0 size=N/A time=00:09:20.10 bitrate=N/A speed=18.4x    frame=13640 fps=440 q=-0.0 size=N/A time=00:09:28.90 bitrate=N/A speed=18.4x    frame=13881 fps=441 q=-0.0 size=N/A time=00:09:38.95 bitrate=N/A speed=18.4x    frame=14115 fps=441 q=-0.0 size=N/A time=00:09:48.71 bitrate=N/A speed=18.4x    frame=14386 fps=442 q=-0.0 size=N/A time=00:10:00.01 bitrate=N/A speed=18.4x    frame=14640 fps=443 q=-0.0 size=N/A time=00:10:10.61 bitrate=N/A speed=18.5x    frame=14854 fps=443 q=-0.0 size=N/A time=00:10:19.53 bitrate=N/A speed=18.5x    frame=15076 fps=442 q=-0.0 size=N/A time=00:10:28.79 bitrate=N/A speed=18.4x    frame=15321 fps=443 q=-0.0 size=N/A time=00:10:39.01 bitrate=N/A speed=18.5x    frame=15562 fps=443 q=-0.0 size=N/A time=00:10:49.06 bitrate=N/A speed=18.5x    frame=15797 fps=443 q=-0.0 size=N/A time=00:10:58.86 bitrate=N/A speed=18.5x    frame=16064 fps=444 q=-0.0 size=N/A time=00:11:10.00 bitrate=N/A speed=18.5x    frame=16312 fps=445 q=-0.0 size=N/A time=00:11:20.34 bitrate=N/A speed=18.6x    frame=16571 fps=446 q=-0.0 size=N/A time=00:11:31.14 bitrate=N/A speed=18.6x    frame=16839 fps=447 q=-0.0 size=N/A time=00:11:42.32 bitrate=N/A speed=18.6x    frame=17118 fps=448 q=-0.0 size=N/A time=00:11:53.96 bitrate=N/A speed=18.7x    frame=17391 fps=449 q=-0.0 size=N/A time=00:12:05.34 bitrate=N/A speed=18.7x    frame=17640 fps=450 q=-0.0 size=N/A time=00:12:15.73 bitrate=N/A speed=18.7x    frame=17901 fps=450 q=-0.0 size=N/A time=00:12:26.62 bitrate=N/A speed=18.8x    frame=18170 fps=451 q=-0.0 size=N/A time=00:12:37.84 bitrate=N/A speed=18.8x    frame=18370 fps=450 q=-0.0 size=N/A time=00:12:46.18 bitrate=N/A speed=18.8x    frame=18605 fps=451 q=-0.0 size=N/A time=00:12:55.98 bitrate=N/A speed=18.8x    frame=18889 fps=452 q=-0.0 size=N/A time=00:13:07.82 bitrate=N/A speed=18.8x    frame=19157 fps=453 q=-0.0 size=N/A time=00:13:19.00 bitrate=N/A speed=18.9x    frame=19392 fps=453 q=-0.0 size=N/A time=00:13:28.80 bitrate=N/A speed=18.9x    frame=19611 fps=452 q=-0.0 size=N/A time=00:13:37.94 bitrate=N/A speed=18.9x    frame=19825 fps=452 q=-0.0 size=N/A time=00:13:46.86 bitrate=N/A speed=18.8x    frame=20035 fps=451 q=-0.0 size=N/A time=00:13:55.62 bitrate=N/A speed=18.8x    frame=20225 fps=450 q=-0.0 size=N/A time=00:14:03.55 bitrate=N/A speed=18.8x    frame=20457 fps=450 q=-0.0 size=N/A time=00:14:13.22 bitrate=N/A speed=18.8x    frame=20658 fps=450 q=-0.0 size=N/A time=00:14:21.61 bitrate=N/A speed=18.8x    frame=20781 fps=447 q=-0.0 size=N/A time=00:14:26.74 bitrate=N/A speed=18.7x    frame=21012 fps=447 q=-0.0 size=N/A time=00:14:36.37 bitrate=N/A speed=18.7x    frame=21246 fps=447 q=-0.0 size=N/A time=00:14:46.13 bitrate=N/A speed=18.7x    frame=21493 fps=448 q=-0.0 size=N/A time=00:14:56.43 bitrate=N/A speed=18.7x    frame=21750 fps=448 q=-0.0 size=N/A time=00:15:07.15 bitrate=N/A speed=18.7x    frame=22016 fps=449 q=-0.0 size=N/A time=00:15:18.25 bitrate=N/A speed=18.7x    frame=22293 fps=450 q=-0.0 size=N/A time=00:15:29.80 bitrate=N/A speed=18.8x    frame=22550 fps=450 q=-0.0 size=N/A time=00:15:40.52 bitrate=N/A speed=18.8x    frame=22784 fps=450 q=-0.0 size=N/A time=00:15:50.28 bitrate=N/A speed=18.8x    frame=23034 fps=451 q=-0.0 size=N/A time=00:16:00.70 bitrate=N/A speed=18.8x    frame=23272 fps=451 q=-0.0 size=N/A time=00:16:10.63 bitrate=N/A speed=18.8x    frame=23477 fps=450 q=-0.0 size=N/A time=00:16:19.18 bitrate=N/A speed=18.8x    frame=23677 fps=449 q=-0.0 size=N/A time=00:16:27.52 bitrate=N/A speed=18.7x    frame=23885 fps=449 q=-0.0 size=N/A time=00:16:36.20 bitrate=N/A speed=18.7x    frame=24144 fps=450 q=-0.0 size=N/A time=00:16:47.00 bitrate=N/A speed=18.8x    frame=24396 fps=450 q=-0.0 size=N/A time=00:16:57.51 bitrate=N/A speed=18.8x    frame=24652 fps=450 q=-0.0 size=N/A time=00:17:08.19 bitrate=N/A speed=18.8x    frame=24891 fps=450 q=-0.0 size=N/A time=00:17:18.16 bitrate=N/A speed=18.8x    frame=25129 fps=451 q=-0.0 size=N/A time=00:17:28.08 bitrate=N/A speed=18.8x    frame=25400 fps=451 q=-0.0 size=N/A time=00:17:39.39 bitrate=N/A speed=18.8x    frame=25626 fps=451 q=-0.0 size=N/A time=00:17:48.81 bitrate=N/A speed=18.8x    frame=25883 fps=452 q=-0.0 size=N/A time=00:17:59.53 bitrate=N/A speed=18.8x    frame=26141 fps=452 q=-0.0 size=N/A time=00:18:10.29 bitrate=N/A speed=18.9x    frame=26368 fps=452 q=-0.0 size=N/A time=00:18:19.76 bitrate=N/A speed=18.8x    frame=26611 fps=452 q=-0.0 size=N/A time=00:18:29.90 bitrate=N/A speed=18.9x    frame=26826 fps=452 q=-0.0 size=N/A time=00:18:38.86 bitrate=N/A speed=18.8x    frame=27016 fps=451 q=-0.0 size=N/A time=00:18:46.79 bitrate=N/A speed=18.8x    frame=27216 fps=451 q=-0.0 size=N/A time=00:18:55.13 bitrate=N/A speed=18.8x    frame=27454 fps=451 q=-0.0 size=N/A time=00:19:05.06 bitrate=N/A speed=18.8x    frame=27691 fps=451 q=-0.0 size=N/A time=00:19:14.94 bitrate=N/A speed=18.8x    frame=27914 fps=451 q=-0.0 size=N/A time=00:19:24.24 bitrate=N/A speed=18.8x    frame=28173 fps=451 q=-0.0 size=N/A time=00:19:35.04 bitrate=N/A speed=18.8x    frame=28427 fps=451 q=-0.0 size=N/A time=00:19:45.64 bitrate=N/A speed=18.8x    frame=28627 fps=451 q=-0.0 size=N/A time=00:19:53.98 bitrate=N/A speed=18.8x    frame=28852 fps=451 q=-0.0 size=N/A time=00:20:03.36 bitrate=N/A speed=18.8x    frame=29129 fps=451 q=-0.0 size=N/A time=00:20:14.92 bitrate=N/A speed=18.8x    frame=29368 fps=451 q=-0.0 size=N/A time=00:20:24.89 bitrate=N/A speed=18.8x    frame=29587 fps=451 q=-0.0 size=N/A time=00:20:34.02 bitrate=N/A speed=18.8x    frame=29846 fps=452 q=-0.0 size=N/A time=00:20:44.82 bitrate=N/A speed=18.8x    frame=30113 fps=452 q=-0.0 size=N/A time=00:20:55.96 bitrate=N/A speed=18.9x    frame=30348 fps=452 q=-0.0 size=N/A time=00:21:05.76 bitrate=N/A speed=18.9x    frame=30580 fps=452 q=-0.0 size=N/A time=00:21:15.44 bitrate=N/A speed=18.9x    frame=30815 fps=452 q=-0.0 size=N/A time=00:21:25.24 bitrate=N/A speed=18.9x    frame=31062 fps=452 q=-0.0 size=N/A time=00:21:35.54 bitrate=N/A speed=18.9x    frame=31273 fps=452 q=-0.0 size=N/A time=00:21:44.34 bitrate=N/A speed=18.9x    frame=31526 fps=452 q=-0.0 size=N/A time=00:21:54.89 bitrate=N/A speed=18.9x    frame=31778 fps=453 q=-0.0 size=N/A time=00:22:05.40 bitrate=N/A speed=18.9x    frame=31997 fps=452 q=-0.0 size=N/A time=00:22:14.54 bitrate=N/A speed=18.9x    frame=32195 fps=452 q=-0.0 size=N/A time=00:22:22.79 bitrate=N/A speed=18.8x    frame=32399 fps=452 q=-0.0 size=N/A time=00:22:31.30 bitrate=N/A speed=18.8x    frame=32599 fps=451 q=-0.0 size=N/A time=00:22:39.64 bitrate=N/A speed=18.8x    frame=32761 fps=450 q=-0.0 size=N/A time=00:22:46.40 bitrate=N/A speed=18.8x    frame=32986 fps=450 q=-0.0 size=N/A time=00:22:55.79 bitrate=N/A speed=18.8x    frame=33183 fps=450 q=-0.0 size=N/A time=00:23:04.00 bitrate=N/A speed=18.7x    frame=33357 fps=449 q=-0.0 size=N/A time=00:23:11.26 bitrate=N/A speed=18.7x    frame=33545 fps=448 q=-0.0 size=N/A time=00:23:19.10 bitrate=N/A speed=18.7x    frame=33731 fps=448 q=-0.0 size=N/A time=00:23:26.86 bitrate=N/A speed=18.7x    frame=33899 fps=447 q=-0.0 size=N/A time=00:23:33.87 bitrate=N/A speed=18.6x    frame=34071 fps=446 q=-0.0 size=N/A time=00:23:41.04 bitrate=N/A speed=18.6x    frame=34225 fps=445 q=-0.0 size=N/A time=00:23:47.46 bitrate=N/A speed=18.6x    frame=34362 fps=444 q=-0.0 size=N/A time=00:23:53.18 bitrate=N/A speed=18.5x    frame=34563 fps=443 q=-0.0 size=N/A time=00:24:01.56 bitrate=N/A speed=18.5x    [Parsed_ssim_10 @ 000001bcff9ca580] SSIM Y:0.992662 (21.343974) U:0.993474 (21.853398) V:0.993985 (22.207465) All:0.993017 (21.559877)
[out#0/null @ 000001bcff2a06c0] video:14878KiB audio:270788KiB subtitle:0KiB other streams:0KiB global headers:0KiB muxing overhead: unknown
frame=34624 fps=444 q=-0.0 Lsize=N/A time=00:24:04.10 bitrate=N/A speed=18.5x    
